# xmcd
#
# Track frame offsets: 
#        150
#        20200
#        41105
#        67257
#
# Disc length: 1132 seconds
#
# Revision: 0
# Processed by: cddbd v1.5.2PL0 Copyright (c) Steve Scherf et al.
# Submitted via: ExactAudioCopyFreeDBPlugin 1.0
#
DISCID=3b046a04
DTITLE=Stephen Simmonds - Get Down
DYEAR=1998
DGENRE=R&B
TTITLE0=Get Down
TTITLE1=Get Down (Ignorants Mix) 
TTITLE2=Get Down (MJ Mix) 
TTITLE3=Get Down (United Mix) 
EXTD=
EXTT0=
EXTT1=
EXTT2=
EXTT3=
PLAYORDER=
